<?xml version="1.0" encoding="UTF-8" standalone="no"?><!-- Generator: Gravit.io --><svg xmlns="http://www.w3.org/2000/svg" xmlns:xlink="http://www.w3.org/1999/xlink" style="isolation:isolate" viewBox="0 0 162.7 214.2" width="162.7pt" height="214.2pt"><defs><clipPath id="_clipPath_iljR1wIYMrx3JNKzXRLhPKi0IoZuVed2"><rect width="162.7" height="214.2"/></clipPath></defs><g clip-path="url(#_clipPath_iljR1wIYMrx3JNKzXRLhPKi0IoZuVed2)"><path d=" M 140.008 42.953 C 141.208 43.453 142.808 44.653 143.508 45.553 C 144.708 47.053 145.108 48.453 145.108 50.453 L 145.108 54.653 L 144.308 103.853 C 144.308 107.853 147.708 111.153 151.708 111.153 L 151.808 111.253 C 155.808 111.253 159.008 107.853 159.008 103.753 L 159.008 40.053 C 159.008 38.553 158.508 37.253 157.808 36.053 C 157.108 34.753 155.908 33.753 154.508 33.053 L 97.108 4.153 C 94.908 3.153 92.408 3.353 90.508 4.453 L 8.408 43.953 C 7.508 44.553 6.708 45.053 6.108 45.753 C 4.608 47.153 3.608 49.053 3.708 51.253 L 3.708 172.353 C 3.708 172.353 3.708 172.453 3.708 172.453 C 3.508 175.553 5.208 178.653 8.308 179.853 L 78.308 210.153 C 82.108 211.653 86.408 209.953 87.908 206.153 L 87.908 206.053 C 88.308 205.053 88.408 204.053 88.408 203.153 C 88.408 203.053 88.408 202.853 88.408 202.653 L 88.408 95.353 C 88.408 90.153 87.208 86.353 83.608 84.553 L 44.708 65.053 C 41.008 63.453 36.608 65.253 35.108 68.953 C 33.508 72.653 35.308 77.053 39.008 78.553 L 68.508 93.353 C 69.708 93.853 71.308 94.953 72.008 95.853 C 73.208 97.353 73.608 98.753 73.608 100.753 L 73.608 182.753 C 72.708 186.653 68.808 189.153 64.808 188.253 L 22.908 170.053 C 19.908 168.853 18.108 165.753 18.308 162.653 C 18.308 162.653 18.308 162.553 18.308 162.553 L 18.308 65.153 L 18.208 60.153 C 18.208 57.953 19.108 56.053 20.608 54.653 C 21.208 53.953 22.008 53.453 22.908 52.853 L 24.308 52.153 L 40.808 44.353 C 41.908 43.853 43.608 42.953 44.808 42.853 C 46.708 42.753 48.008 43.353 49.808 44.253 L 105.008 70.153 C 106.208 70.653 107.808 71.753 108.508 72.653 C 109.708 74.153 110.108 75.553 110.108 77.553 L 110.108 154.753 C 110.108 158.753 113.508 162.053 117.508 162.053 L 117.808 161.853 C 121.808 161.853 124.808 158.653 124.808 154.653 L 124.808 68.153 C 124.808 66.153 124.308 64.753 123.208 63.253 C 122.508 62.353 120.908 61.253 119.708 60.753 L 71.608 38.853 C 69.008 37.653 67.208 37.053 65.908 36.453 C 64.308 35.753 63.508 35.853 63.308 34.353 C 63.208 33.553 64.508 33.253 65.908 32.453 L 89.508 21.353 C 90.508 20.753 92.308 19.953 93.508 19.853 C 95.408 19.753 96.708 20.453 98.508 21.253 L 140.008 42.853 L 140.008 42.853 L 140.008 42.953 Z " fill="rgb(2,2,3)"/></g></svg>