<svg xmlns="http://www.w3.org/2000/svg" xmlns:xlink="http://www.w3.org/1999/xlink" width="486" height="529.511" viewBox="0 0 486 529.511"><defs><style>.a{fill:#fff;}.a,.b,.c,.e,.f,.h,.i{stroke:#000;}.a,.c,.d,.e,.f,.h,.i,.j{stroke-linecap:round;}.a,.d,.f,.h,.i{stroke-linejoin:round;}.a,.d,.i{stroke-width:20px;}.b,.c,.d,.e,.f,.j,.l{fill:none;}.b,.e{stroke-width:21px;}.c,.h{stroke-width:22px;}.d{stroke:#020202;}.f{stroke-width:3px;}.g{fill:#2ac940;}.h{fill:url(#a);}.i{fill:#b9744e;}.j{stroke:#2ac940;stroke-width:50px;}.k{stroke:none;}</style><linearGradient id="a" x1="0.5" x2="0.5" y2="1" gradientUnits="objectBoundingBox"><stop offset="0" stop-color="#ffd749"/><stop offset="1" stop-color="#d10000"/></linearGradient></defs><g transform="translate(-885 -285.196)"><g class="a" transform="translate(941.945 427.89)"><path class="k" d="M0,0H372.11a0,0,0,0,1,0,0V205.55a70,70,0,0,1-70,70H70a70,70,0,0,1-70-70V0A0,0,0,0,1,0,0Z"/><path class="l" d="M20,10H352.11a10,10,0,0,1,10,10V205.55a60,60,0,0,1-60,60H70a60,60,0,0,1-60-60V20A10,10,0,0,1,20,10Z"/></g><g class="b" transform="translate(885 479)"><path class="k" d="M30,0H77a0,0,0,0,1,0,0V62a0,0,0,0,1,0,0H30A30,30,0,0,1,0,32V30A30,30,0,0,1,30,0Z"/><path class="l" d="M30,10.5H56A10.5,10.5,0,0,1,66.5,21V41A10.5,10.5,0,0,1,56,51.5H30A19.5,19.5,0,0,1,10.5,32V30A19.5,19.5,0,0,1,30,10.5Z"/></g><g class="b" transform="translate(1371 541) rotate(180)"><path class="k" d="M30,0H77a0,0,0,0,1,0,0V62a0,0,0,0,1,0,0H30A30,30,0,0,1,0,32V30A30,30,0,0,1,30,0Z"/><path class="l" d="M30,10.5H56A10.5,10.5,0,0,1,66.5,21V41A10.5,10.5,0,0,1,56,51.5H30A19.5,19.5,0,0,1,10.5,32V30A19.5,19.5,0,0,1,30,10.5Z"/></g><line class="c" x2="350" transform="translate(952.5 792.5)"/><g class="d" transform="translate(962 742)"><path class="k" d="M60,0H272a60,60,0,0,1,60,60v1a0,0,0,0,1,0,0H0a0,0,0,0,1,0,0V60A60,60,0,0,1,60,0Z"/><path class="l" d="M44.167,10H287.833A34.167,34.167,0,0,1,322,44.167v0A6.833,6.833,0,0,1,315.167,51H16.833A6.833,6.833,0,0,1,10,44.167v0A34.167,34.167,0,0,1,44.167,10Z"/></g><line class="e" x2="146" transform="translate(941.945 489.5)"/><line class="e" x2="146" transform="translate(1168.055 489.5)"/><path class="f" d="M584.547,488.467l7.082,3.865v19.818l-12.5-5.653V484.775l6.639-3.172,8.454-4.04,10.035,5.544v11.3" transform="translate(536.311 -5.356)"/><path class="f" d="M585.846,481.863l12.525,6.168v15.177" transform="translate(536.311 -5.356)"/><path class="g" d="M11,0H55A11,11,0,0,1,66,11V37a0,0,0,0,1,0,0H0a0,0,0,0,1,0,0V11A11,11,0,0,1,11,0Z" transform="translate(979 391)"/><rect class="g" width="61" height="62" rx="11" transform="translate(1047 321)"/><rect class="g" width="38" height="39" rx="12" transform="translate(1118 364)"/><path class="h" d="M266.336,681.722c-34.873-14.352,11.856-62.6,11.856-62.6s55.13,49.312,55.13,62.6-9.153,9.249-35.02,0S301.209,696.075,266.336,681.722Z" transform="translate(911.009 56.945)"/><path class="i" d="M1055.5,409.019l24.86-77.59-.053-.463s-10.612-31.87.053-47.586,25.743-20.127,42.61-15.278,21.9,19.163,19.53,36.51c-2.072,15.179-29,32.881-29,32.881L1091,409.019Z" transform="translate(150.949 28.981)"/><path class="h" d="M262.537,696.792c-36.47-16.984,48.426-79.837,48.426-79.837h0c.082.122,41.384,61.176,41.384,76.886,0,15.726-41.384-3.612-41.384-3.612S299.007,713.776,262.537,696.792Z" transform="translate(826.486 47.81)"/><path class="h" d="M266.929,685.33C230.458,670.15,306.664,619,306.664,619s30.319,52.275,30.319,66.33-9.573,9.782-36.624,0S303.4,700.509,266.929,685.33Z" transform="translate(754.954 56.945)"/><g transform="translate(-217 -0.47)"><path class="j" d="M556.3,719.927l62.964,62.686" transform="translate(814.702 -2.792)"/><path class="j" d="M0,0,182.572,98.809" transform="translate(1536.027 597.25) rotate(90)"/></g></g></svg>