<svg width="10" height="14" viewBox="0 0 10 14" fill="none" xmlns="http://www.w3.org/2000/svg">
<path d="M0.375305 12.2191C-0.0559568 12.5641 -0.125878 13.1934 0.219131 13.6247C0.564141 14.056 1.19343 14.1259 1.6247 13.7809L0.375305 12.2191ZM8.5 7L9.1247 7.78087C9.36191 7.5911 9.5 7.30378 9.5 7C9.5 6.69622 9.36191 6.4089 9.1247 6.21913L8.5 7ZM1.6247 0.219131C1.19343 -0.125878 0.564141 -0.0559578 0.219131 0.375304C-0.125878 0.806566 -0.0559568 1.43586 0.375305 1.78087L1.6247 0.219131ZM1.6247 13.7809L9.1247 7.78087L7.8753 6.21913L0.375305 12.2191L1.6247 13.7809ZM9.1247 6.21913L1.6247 0.219131L0.375305 1.78087L7.8753 7.78087L9.1247 6.21913Z" fill="currentColor"/>
</svg>
